<?xml version='1.0' encoding='UTF-8' standalone='no'?>
<!-- Created with Inkscape (http://www.inkscape.org/) -->
<svg xmlns="http://www.w3.org/2000/svg" width="58.5" version="1.1" height="58.5" id="svg13574">
 <defs  id="defs13576">
  <linearGradient  id="linearGradient3917">
   <stop  offset="0" style="stop-color:#ffffff;stop-opacity:1" id="stop3919"/>
   <stop  offset="1" style="stop-color:#ffffff;stop-opacity:0" id="stop3921"/>
  </linearGradient>
  <marker  orient="auto" refX="0" refY="0" style="overflow:visible" id="DotM">
   <path  style="fill-rule:evenodd;stroke:#000000;stroke-width:1pt;marker-start:none;marker-end:none" id="path9346" d="m -2.5,-1 c 0,2.76 -2.24,5 -5,5 -2.76,0 -5,-2.24 -5,-5 0,-2.76 2.24,-5 5,-5 2.76,0 5,2.24 5,5 z" transform="matrix(0.4,0,0,0.4,2.96,0.4)"/>
  </marker>
  <marker  orient="auto" refX="0" refY="0" style="overflow:visible" id="Tail">
   <g  id="g9317" transform="scale(-1.2,-1.2)">
    <path  style="fill:none;stroke:#000000;stroke-width:0.80000001;stroke-linecap:round;marker-start:none;marker-end:none" id="path9319" d="M -3.8048674,-3.9585227 0.54352094,0"/>
    <path  style="fill:none;stroke:#000000;stroke-width:0.80000001;stroke-linecap:round;marker-start:none;marker-end:none" id="path9321" d="M -1.2866832,-3.9585227 3.0617053,0"/>
    <path  style="fill:none;stroke:#000000;stroke-width:0.80000001;stroke-linecap:round;marker-start:none;marker-end:none" id="path9323" d="M 1.3053582,-3.9585227 5.6537466,0"/>
    <path  style="fill:none;stroke:#000000;stroke-width:0.80000001;stroke-linecap:round;marker-start:none;marker-end:none" id="path9325" d="M -3.8048674,4.1775838 0.54352094,0.21974226"/>
    <path  style="fill:none;stroke:#000000;stroke-width:0.80000001;stroke-linecap:round;marker-start:none;marker-end:none" id="path9327" d="M -1.2866832,4.1775838 3.0617053,0.21974226"/>
    <path  style="fill:none;stroke:#000000;stroke-width:0.80000001;stroke-linecap:round;marker-start:none;marker-end:none" id="path9329" d="M 1.3053582,4.1775838 5.6537466,0.21974226"/>
   </g>
  </marker>
  <marker  orient="auto" refX="0" refY="0" style="overflow:visible" id="Arrow1Mstart">
   <path  style="fill-rule:evenodd;stroke:#000000;stroke-width:1pt;marker-start:none" id="path9287" d="M 0,0 5,-5 -12.5,0 5,5 0,0 z" transform="matrix(0.4,0,0,0.4,4,0)"/>
  </marker>
  <inkscape:path-effect xmlns:inkscape="http://www.inkscape.org/namespaces/inkscape" effect="spiro" id="path-effect12689"/>
  <inkscape:path-effect xmlns:inkscape="http://www.inkscape.org/namespaces/inkscape" effect="spiro" id="path-effect12685"/>
  <linearGradient  id="linearGradient3918">
   <stop  offset="0" style="stop-color:#333333;stop-opacity:1" id="stop3920"/>
   <stop  offset="0.02000007" style="stop-color:#696969;stop-opacity:1" id="stop3922"/>
   <stop  offset="0.04000007" style="stop-color:#464646;stop-opacity:1" id="stop3924"/>
   <stop  offset="1" style="stop-color:#2c2c2c;stop-opacity:0" id="stop3926"/>
  </linearGradient>
  <linearGradient  id="linearGradient3902">
   <stop  offset="0" style="stop-color:#333333;stop-opacity:1" id="stop3904"/>
   <stop  offset="0.02" style="stop-color:#696969;stop-opacity:1" id="stop3906"/>
   <stop  offset="0.04" style="stop-color:#464646;stop-opacity:1" id="stop3912"/>
   <stop  offset="1" style="stop-color:#2c2c2c;stop-opacity:1" id="stop3908"/>
  </linearGradient>
  <linearGradient  id="linearGradient3891">
   <stop  offset="0" style="stop-color:#1f1f1f;stop-opacity:1" id="stop3893"/>
   <stop  offset="0.5" style="stop-color:#333333;stop-opacity:1" id="stop3897"/>
   <stop  offset="1" style="stop-color:#161616;stop-opacity:1" id="stop3895"/>
  </linearGradient>
  <linearGradient  id="linearGradient3881">
   <stop  offset="0" style="stop-color:#bcbcbc;stop-opacity:0" id="stop3883"/>
   <stop  offset="0.56" style="stop-color:#b9b9b9;stop-opacity:0.10714286" id="stop9949"/>
   <stop  offset="1" style="stop-color:#333333;stop-opacity:0" id="stop3885"/>
  </linearGradient>
  <linearGradient  id="linearGradient3864">
   <stop  offset="0" style="stop-color:#000000;stop-opacity:0.24107143" id="stop3866"/>
   <stop  offset="1" style="stop-color:#ffffff;stop-opacity:0.21428572" id="stop3868"/>
  </linearGradient>
  <linearGradient  xlink:href="#linearGradient3864" xmlns:xlink="http://www.w3.org/1999/xlink" id="linearGradient3862" y1="270" x1="99" y2="252" x2="63" gradientUnits="userSpaceOnUse"/>
  <linearGradient  id="linearGradient9233-5">
   <stop  offset="0" style="stop-color:#434343;stop-opacity:1" id="stop9235-8"/>
   <stop  offset="0.08333334" style="stop-color:#716e6e;stop-opacity:1" id="stop9237-9"/>
   <stop  offset="1" style="stop-color:#acacac;stop-opacity:1" id="stop9239-4"/>
  </linearGradient>
  <linearGradient  id="linearGradient8940">
   <stop  offset="0" style="stop-color:#434343;stop-opacity:1" id="stop8942"/>
   <stop  offset="0.08333334" style="stop-color:#716e6e;stop-opacity:1" id="stop8944"/>
   <stop  offset="1" style="stop-color:#acacac;stop-opacity:1" id="stop8946"/>
  </linearGradient>
  <linearGradient  id="linearGradient8949">
   <stop  offset="0" style="stop-color:#434343;stop-opacity:1" id="stop8951"/>
   <stop  offset="0.08333334" style="stop-color:#716e6e;stop-opacity:1" id="stop8953"/>
   <stop  offset="1" style="stop-color:#acacac;stop-opacity:1" id="stop8955"/>
  </linearGradient>
  <linearGradient  id="linearGradient8958">
   <stop  offset="0" style="stop-color:#434343;stop-opacity:1" id="stop8960"/>
   <stop  offset="0.08333334" style="stop-color:#716e6e;stop-opacity:1" id="stop8962"/>
   <stop  offset="1" style="stop-color:#acacac;stop-opacity:1" id="stop8964"/>
  </linearGradient>
  <linearGradient  id="linearGradient8967">
   <stop  offset="0" style="stop-color:#434343;stop-opacity:1" id="stop8969"/>
   <stop  offset="0.08333334" style="stop-color:#716e6e;stop-opacity:1" id="stop8971"/>
   <stop  offset="1" style="stop-color:#acacac;stop-opacity:1" id="stop8973"/>
  </linearGradient>
  <radialGradient  fx="58.5" fy="130.5" cx="58.5" cy="130.5" gradientTransform="matrix(0.99227788,-0.12403473,0.125,1,-15.860756,7.2560285)" xlink:href="#linearGradient9233-5" xmlns:xlink="http://www.w3.org/1999/xlink" r="3.5999999" id="radialGradient15844" gradientUnits="userSpaceOnUse"/>
  <linearGradient  id="linearGradient8976">
   <stop  offset="0" style="stop-color:#434343;stop-opacity:1" id="stop8978"/>
   <stop  offset="0.08333334" style="stop-color:#716e6e;stop-opacity:1" id="stop8980"/>
   <stop  offset="1" style="stop-color:#acacac;stop-opacity:1" id="stop8982"/>
  </linearGradient>
  <linearGradient  id="linearGradient14878">
   <stop  offset="0" style="stop-color:#b3b3b3;stop-opacity:1" id="stop14880"/>
   <stop  offset="0.25" style="stop-color:#939393;stop-opacity:1" id="stop14900"/>
   <stop  offset="0.5" style="stop-color:#d3d3d3;stop-opacity:1" id="stop14884"/>
   <stop  offset="0.75" style="stop-color:#969696;stop-opacity:1" id="stop14886"/>
   <stop  offset="1" style="stop-color:#909090;stop-opacity:1" id="stop14882"/>
  </linearGradient>
  <linearGradient  id="linearGradient9420">
   <stop  offset="0" style="stop-color:#b3b3b3;stop-opacity:1" id="stop9422"/>
   <stop  offset="0.25" style="stop-color:#939393;stop-opacity:1" id="stop9424"/>
   <stop  offset="0.5" style="stop-color:#d3d3d3;stop-opacity:1" id="stop9426"/>
   <stop  offset="0.75" style="stop-color:#969696;stop-opacity:1" id="stop9428"/>
   <stop  offset="1" style="stop-color:#909090;stop-opacity:1" id="stop9430"/>
  </linearGradient>
  <linearGradient  id="linearGradient9433">
   <stop  offset="0" style="stop-color:#b3b3b3;stop-opacity:1" id="stop9435"/>
   <stop  offset="0.25" style="stop-color:#939393;stop-opacity:1" id="stop9437"/>
   <stop  offset="0.5" style="stop-color:#d3d3d3;stop-opacity:1" id="stop9439"/>
   <stop  offset="0.75" style="stop-color:#969696;stop-opacity:1" id="stop9441"/>
   <stop  offset="1" style="stop-color:#909090;stop-opacity:1" id="stop9443"/>
  </linearGradient>
  <linearGradient  gradientTransform="translate(5.850004,-2.7283644e-4)" xlink:href="#linearGradient14878" xmlns:xlink="http://www.w3.org/1999/xlink" id="linearGradient14995" y1="1019.9598" x1="42.299995" y2="1022.6597" x2="42.299999" gradientUnits="userSpaceOnUse"/>
  <linearGradient  id="linearGradient9446">
   <stop  offset="0" style="stop-color:#b3b3b3;stop-opacity:1" id="stop9448"/>
   <stop  offset="0.25" style="stop-color:#939393;stop-opacity:1" id="stop9450"/>
   <stop  offset="0.5" style="stop-color:#d3d3d3;stop-opacity:1" id="stop9452"/>
   <stop  offset="0.75" style="stop-color:#969696;stop-opacity:1" id="stop9454"/>
   <stop  offset="1" style="stop-color:#909090;stop-opacity:1" id="stop9456"/>
  </linearGradient>
  <linearGradient  gradientTransform="matrix(0.66668152,0,0,1,-1031.8854,-982.1601)" xlink:href="#linearGradient14878" xmlns:xlink="http://www.w3.org/1999/xlink" id="linearGradient9738" y1="1019.9598" x1="42.299995" y2="1022.6597" x2="42.299999" gradientUnits="userSpaceOnUse"/>
  <linearGradient  gradientTransform="matrix(0.66668152,0,0,1,-1033.2353,-982.1601)" xlink:href="#linearGradient14878" xmlns:xlink="http://www.w3.org/1999/xlink" id="linearGradient9740" y1="1019.9598" x1="42.299995" y2="1022.6597" x2="42.299999" gradientUnits="userSpaceOnUse"/>
  <linearGradient  gradientTransform="matrix(0.66668152,0,0,1,-1034.5853,-982.1601)" xlink:href="#linearGradient14878" xmlns:xlink="http://www.w3.org/1999/xlink" id="linearGradient9742" y1="1019.9598" x1="42.299995" y2="1022.6597" x2="42.299999" gradientUnits="userSpaceOnUse"/>
  <linearGradient  gradientTransform="matrix(0.66668152,0,0,1,-1035.9352,-982.1601)" xlink:href="#linearGradient14878" xmlns:xlink="http://www.w3.org/1999/xlink" id="linearGradient9744" y1="1019.9598" x1="42.299995" y2="1022.6597" x2="42.299999" gradientUnits="userSpaceOnUse"/>
  <linearGradient  gradientTransform="matrix(0.66668152,0,0,1,-1026.4854,-982.1601)" xlink:href="#linearGradient14878" xmlns:xlink="http://www.w3.org/1999/xlink" id="linearGradient9746" y1="1019.9598" x1="42.299995" y2="1022.6597" x2="42.299999" gradientUnits="userSpaceOnUse"/>
  <linearGradient  gradientTransform="matrix(0.66668152,0,0,1,-1027.8353,-982.1601)" xlink:href="#linearGradient14878" xmlns:xlink="http://www.w3.org/1999/xlink" id="linearGradient9748" y1="1019.9598" x1="42.299995" y2="1022.6597" x2="42.299999" gradientUnits="userSpaceOnUse"/>
  <linearGradient  gradientTransform="matrix(0.66668152,0,0,1,-1029.1853,-982.1601)" xlink:href="#linearGradient14878" xmlns:xlink="http://www.w3.org/1999/xlink" id="linearGradient9750" y1="1019.9598" x1="42.299995" y2="1022.6597" x2="42.299999" gradientUnits="userSpaceOnUse"/>
  <linearGradient  gradientTransform="matrix(0.66668152,0,0,1,-1030.5352,-982.1601)" xlink:href="#linearGradient14878" xmlns:xlink="http://www.w3.org/1999/xlink" id="linearGradient9752" y1="1019.9598" x1="42.299995" y2="1022.6597" x2="42.299999" gradientUnits="userSpaceOnUse"/>
  <linearGradient  gradientTransform="matrix(0.66668152,0,0,1,-1031.8854,-982.1601)" xlink:href="#linearGradient14878" xmlns:xlink="http://www.w3.org/1999/xlink" id="linearGradient9754" y1="1019.9598" x1="42.299995" y2="1022.6597" x2="42.299999" gradientUnits="userSpaceOnUse"/>
  <linearGradient  gradientTransform="matrix(0.66668152,0,0,1,-1033.2353,-982.1601)" xlink:href="#linearGradient14878" xmlns:xlink="http://www.w3.org/1999/xlink" id="linearGradient9756" y1="1019.9598" x1="42.299995" y2="1022.6597" x2="42.299999" gradientUnits="userSpaceOnUse"/>
  <linearGradient  gradientTransform="matrix(0.66668152,0,0,1,-1034.5853,-982.1601)" xlink:href="#linearGradient14878" xmlns:xlink="http://www.w3.org/1999/xlink" id="linearGradient9758" y1="1019.9598" x1="42.299995" y2="1022.6597" x2="42.299999" gradientUnits="userSpaceOnUse"/>
  <linearGradient  gradientTransform="matrix(0.66668152,0,0,1,-1035.9352,-982.1601)" xlink:href="#linearGradient14878" xmlns:xlink="http://www.w3.org/1999/xlink" id="linearGradient9760" y1="1019.9598" x1="42.299995" y2="1022.6597" x2="42.299999" gradientUnits="userSpaceOnUse"/>
  <linearGradient  gradientTransform="matrix(0.66668152,0,0,1,-1026.4854,-982.1601)" xlink:href="#linearGradient14878" xmlns:xlink="http://www.w3.org/1999/xlink" id="linearGradient9762" y1="1019.9598" x1="42.299995" y2="1022.6597" x2="42.299999" gradientUnits="userSpaceOnUse"/>
  <linearGradient  gradientTransform="matrix(0.66668152,0,0,1,-1027.8353,-982.1601)" xlink:href="#linearGradient14878" xmlns:xlink="http://www.w3.org/1999/xlink" id="linearGradient9764" y1="1019.9598" x1="42.299995" y2="1022.6597" x2="42.299999" gradientUnits="userSpaceOnUse"/>
  <linearGradient  gradientTransform="matrix(0.66668152,0,0,1,-1029.1853,-982.1601)" xlink:href="#linearGradient14878" xmlns:xlink="http://www.w3.org/1999/xlink" id="linearGradient9766" y1="1019.9598" x1="42.299995" y2="1022.6597" x2="42.299999" gradientUnits="userSpaceOnUse"/>
  <linearGradient  gradientTransform="matrix(0.66668152,0,0,1,-1030.5352,-982.1601)" xlink:href="#linearGradient14878" xmlns:xlink="http://www.w3.org/1999/xlink" id="linearGradient9768" y1="1019.9598" x1="42.299995" y2="1022.6597" x2="42.299999" gradientUnits="userSpaceOnUse"/>
  <linearGradient  xlink:href="#linearGradient3917" xmlns:xlink="http://www.w3.org/1999/xlink" id="linearGradient3923" y1="238.5" x1="97.425003" y2="238.5" x2="244.575" gradientUnits="userSpaceOnUse"/>
  <linearGradient  xlink:href="#linearGradient9420" xmlns:xlink="http://www.w3.org/1999/xlink" id="linearGradient4199" y1="416.47498" x1="22.049999" y2="416.47498" x2="24.749998" gradientUnits="userSpaceOnUse"/>
  <linearGradient  xlink:href="#linearGradient9420" xmlns:xlink="http://www.w3.org/1999/xlink" id="linearGradient4201" y1="413.77499" x1="22.049999" y2="413.77499" x2="24.749998" gradientUnits="userSpaceOnUse"/>
  <linearGradient  xlink:href="#linearGradient9420" xmlns:xlink="http://www.w3.org/1999/xlink" id="linearGradient4203" y1="419.17499" x1="22.049999" y2="419.17499" x2="24.749998" gradientUnits="userSpaceOnUse"/>
  <linearGradient  xlink:href="#linearGradient9420" xmlns:xlink="http://www.w3.org/1999/xlink" id="linearGradient4205" y1="421.875" x1="22.049999" y2="421.875" x2="24.749998" gradientUnits="userSpaceOnUse"/>
  <linearGradient  xlink:href="#linearGradient9420" xmlns:xlink="http://www.w3.org/1999/xlink" id="linearGradient4207" y1="424.57498" x1="22.049999" y2="424.57498" x2="24.749998" gradientUnits="userSpaceOnUse"/>
  <linearGradient  xlink:href="#linearGradient9420" xmlns:xlink="http://www.w3.org/1999/xlink" id="linearGradient4209" y1="427.27502" x1="22.049999" y2="427.27502" x2="24.749998" gradientUnits="userSpaceOnUse"/>
  <linearGradient  xlink:href="#linearGradient9420" xmlns:xlink="http://www.w3.org/1999/xlink" id="linearGradient4225" y1="416.47498" x1="22.049999" y2="416.47498" x2="24.749998" gradientUnits="userSpaceOnUse"/>
  <linearGradient  xlink:href="#linearGradient9420" xmlns:xlink="http://www.w3.org/1999/xlink" id="linearGradient4227" y1="413.77499" x1="22.049999" y2="413.77499" x2="24.749998" gradientUnits="userSpaceOnUse"/>
  <linearGradient  xlink:href="#linearGradient9420" xmlns:xlink="http://www.w3.org/1999/xlink" id="linearGradient4229" y1="419.17499" x1="22.049999" y2="419.17499" x2="24.749998" gradientUnits="userSpaceOnUse"/>
  <linearGradient  xlink:href="#linearGradient9420" xmlns:xlink="http://www.w3.org/1999/xlink" id="linearGradient4231" y1="421.875" x1="22.049999" y2="421.875" x2="24.749998" gradientUnits="userSpaceOnUse"/>
  <linearGradient  xlink:href="#linearGradient9420" xmlns:xlink="http://www.w3.org/1999/xlink" id="linearGradient4233" y1="424.57498" x1="22.049999" y2="424.57498" x2="24.749998" gradientUnits="userSpaceOnUse"/>
  <linearGradient  xlink:href="#linearGradient9420" xmlns:xlink="http://www.w3.org/1999/xlink" id="linearGradient4235" y1="427.27502" x1="22.049999" y2="427.27502" x2="24.749998" gradientUnits="userSpaceOnUse"/>
  <linearGradient  xlink:href="#linearGradient9420" xmlns:xlink="http://www.w3.org/1999/xlink" id="linearGradient4303" y1="434.48792" x1="1.5742668" y2="434.48792" x2="11.522223" gradientUnits="userSpaceOnUse"/>
  <linearGradient  xlink:href="#linearGradient9420" xmlns:xlink="http://www.w3.org/1999/xlink" id="linearGradient4305" y1="407.00943" x1="46.980049" y2="407.00943" x2="56.925728" gradientUnits="userSpaceOnUse"/>
  <linearGradient  xlink:href="#linearGradient9420" xmlns:xlink="http://www.w3.org/1999/xlink" id="linearGradient4307" y1="434.49054" x1="46.980049" y2="434.49054" x2="56.925728" gradientUnits="userSpaceOnUse"/>
  <linearGradient  xlink:href="#linearGradient9420" xmlns:xlink="http://www.w3.org/1999/xlink" id="linearGradient4309" y1="445.95312" x1="23.785" y2="445.95312" x2="34.715" gradientUnits="userSpaceOnUse"/>
  <linearGradient  xlink:href="#linearGradient9420" xmlns:xlink="http://www.w3.org/1999/xlink" id="linearGradient4311" y1="395.54688" x1="23.785" y2="395.54688" x2="34.715" gradientUnits="userSpaceOnUse"/>
  <linearGradient  xlink:href="#linearGradient9420" xmlns:xlink="http://www.w3.org/1999/xlink" id="linearGradient4313" y1="407.01208" x1="1.5742668" y2="407.01208" x2="11.522223" gradientUnits="userSpaceOnUse"/>
  <linearGradient  xlink:href="#linearGradient3891" xmlns:xlink="http://www.w3.org/1999/xlink" id="linearGradient4321" y1="420.75" x1="-0.090000004" y2="445.5" x2="49.5" gradientUnits="userSpaceOnUse"/>
  <linearGradient  xlink:href="#linearGradient3891" xmlns:xlink="http://www.w3.org/1999/xlink" id="linearGradient4484" y1="420.75" x1="-0.090000004" y2="445.5" x2="49.5" gradientUnits="userSpaceOnUse"/>
  <linearGradient  xlink:href="#linearGradient3891" xmlns:xlink="http://www.w3.org/1999/xlink" id="linearGradient4487" y1="420.75" x1="-0.090000004" y2="445.5" x2="49.5" gradientUnits="userSpaceOnUse"/>
  <linearGradient  xlink:href="#linearGradient3891" xmlns:xlink="http://www.w3.org/1999/xlink" id="linearGradient4490" y1="420.75" x1="-0.090000004" y2="445.5" x2="49.5" gradientUnits="userSpaceOnUse"/>
  <linearGradient  xlink:href="#linearGradient3891" xmlns:xlink="http://www.w3.org/1999/xlink" id="linearGradient4493" y1="420.75" x1="-0.090000004" y2="445.5" x2="49.5" gradientUnits="userSpaceOnUse"/>
  <linearGradient  xlink:href="#linearGradient3891" xmlns:xlink="http://www.w3.org/1999/xlink" id="linearGradient4496" y1="420.75" x1="-0.090000004" y2="445.5" x2="49.5" gradientUnits="userSpaceOnUse"/>
  <linearGradient  xlink:href="#linearGradient3891" xmlns:xlink="http://www.w3.org/1999/xlink" id="linearGradient4505" y1="420.75" x1="-0.090000004" y2="445.5" x2="49.5" gradientUnits="userSpaceOnUse"/>
 </defs>
 <metadata  id="metadata13579">
  <rdf:RDF xmlns:rdf="http://www.w3.org/1999/02/22-rdf-syntax-ns#">
   <cc:Work xmlns:cc="http://creativecommons.org/ns#" rdf:about="" xmlns:rdf="http://www.w3.org/1999/02/22-rdf-syntax-ns#">
    <dc:format xmlns:dc="http://purl.org/dc/elements/1.1/">image/svg+xml</dc:format>
    <dc:type xmlns:dc="http://purl.org/dc/elements/1.1/" rdf:resource="http://purl.org/dc/dcmitype/StillImage" xmlns:rdf="http://www.w3.org/1999/02/22-rdf-syntax-ns#"/>
    <dc:title xmlns:dc="http://purl.org/dc/elements/1.1/"/>
   </cc:Work>
  </rdf:RDF>
 </metadata>
 <g  style="display:inline" id="layer1" transform="translate(0,-993.85975)"/>
 <g  style="display:inline" id="layer2" transform="translate(0,-391.5)"/>
 <g  id="layer3" transform="translate(0,-391.5)"/>
 <g  id="layer4" transform="translate(0,-391.5)">
  <g style="font-size:6px;font-style:normal;font-variant:normal;font-weight:normal;font-stretch:normal;line-height:125%;letter-spacing:0px;word-spacing:0px;fill:#000000;fill-opacity:1;stroke:none;font-family:OCRA;-inkscape-font-specification:OCRA" id="text12675" xml:space="preserve"/>
 </g>
 <g  style="display:inline" id="layer8" transform="translate(0,-391.5)">
  <g  id="breadboard">
   <path  style="fill:url(#linearGradient4505);fill-opacity:1;stroke:#000000;stroke-width:0.18000001;stroke-linecap:round;stroke-linejoin:round;stroke-miterlimit:4;stroke-opacity:1;stroke-dasharray:none;display:inline" id="path4031" d="M 29.25,391.5 C 13.095671,391.5 0,404.59567 0,420.75 0,436.90433 13.095671,450 29.25,450 45.404329,450 58.5,436.90433 58.5,420.75 58.5,404.59567 45.404329,391.5 29.25,391.5 z m 0,1.34375 c 1.491169,0 2.6875,1.22758 2.6875,2.71875 0,1.49117 -1.196331,2.6875 -2.6875,2.6875 -1.491169,0 -2.6875,-1.19633 -2.6875,-2.6875 0,-1.49117 1.196331,-2.71875 2.6875,-2.71875 z m 21.90625,12.59375 c 0.908693,0.0231 1.760711,0.52753 2.25,1.375 0.745584,1.29139 0.32264,2.94192 -0.96875,3.6875 -1.29139,0.74558 -2.941916,0.29139 -3.6875,-1 -0.745584,-1.29139 -0.32264,-2.94192 0.96875,-3.6875 0.322848,-0.1864 0.68319,-0.30056 1.03125,-0.34375 0.130523,-0.0162 0.276437,-0.0345 0.40625,-0.0312 z M 7.25,405.46875 c 0.5187529,-0.0367 1.0469787,0.0642 1.53125,0.34375 1.29139,0.74558 1.714334,2.39611 0.96875,3.6875 -0.7455844,1.29139 -2.3961099,1.74558 -3.6875,1 -1.2913901,-0.74558 -1.7143344,-2.39611 -0.96875,-3.6875 0.4659903,-0.80712 1.2916618,-1.28265 2.15625,-1.34375 z M 7.5,430.625 c 0.9086927,0.0231 1.7607102,0.52753 2.25,1.375 0.745584,1.29139 0.32264,2.94192 -0.96875,3.6875 -1.2913901,0.74558 -2.9419156,0.29139 -3.6875,-1 C 4.3481656,433.39611 4.7711099,431.74558 6.0625,431 c 0.3228475,-0.1864 0.6831897,-0.30056 1.03125,-0.34375 0.1305226,-0.0162 0.2764368,-0.0345 0.40625,-0.0312 z m 43.375,0.0312 c 0.518753,-0.0367 1.078229,0.0642 1.5625,0.34375 1.29139,0.74558 1.714334,2.39611 0.96875,3.6875 -0.745584,1.29139 -2.39611,1.74558 -3.6875,1 C 48.42736,434.94192 48.004416,433.29139 48.75,432 c 0.46599,-0.80712 1.260412,-1.28265 2.125,-1.34375 z M 29.25,443.25 c 1.491169,0 2.6875,1.19633 2.6875,2.6875 0,1.49117 -1.196331,2.71875 -2.6875,2.71875 -1.491169,0 -2.6875,-1.22758 -2.6875,-2.71875 0,-1.49117 1.196331,-2.6875 2.6875,-2.6875 z"/>
   <path  style="fill:url(#linearGradient4313);fill-opacity:1;stroke:#000000;stroke-width:0.18000001;stroke-linecap:round;stroke-linejoin:round;stroke-miterlimit:4;stroke-opacity:1;stroke-dasharray:none;display:inline" id="path4092" d="m 3.9187541,406.125 c -0.916323,1.58712 -1.6640894,3.23742 -2.2544873,4.90488 3.7599172,1.97382 7.8279909,1.62903 9.2638802,-0.85801 1.43589,-2.48703 -0.29955,-6.18248 -3.8888802,-8.45176 -1.1488631,1.34503 -2.2041897,2.81777 -3.1205127,4.40489 z m 2.3274433,1.34375 c 0.37279,-0.64569 1.21696,-0.84902 1.8626599,-0.47622 0.6456999,0.37279 0.8646366,1.1899 0.4918466,1.83559 -0.37279,0.64569 -1.1898967,0.86464 -1.8355966,0.49185 -0.6456999,-0.3728 -0.8916999,-1.20553 -0.5189099,-1.85122 z"/>
   <path  style="fill:url(#linearGradient4311);fill-opacity:1;stroke:#000000;stroke-width:0.18000001;stroke-linecap:round;stroke-linejoin:round;stroke-miterlimit:4;stroke-opacity:1;stroke-dasharray:none;display:inline" id="path4049" d="m 29.25,391.5 c -1.832646,0 -3.635739,0.17757 -5.375,0.5 0.170587,4.24309 2.503221,7.59375 5.375,7.59375 2.871779,0 5.204413,-3.35066 5.375,-7.59375 -1.739261,-0.32243 -3.542354,-0.5 -5.375,-0.5 z m 0,2.6875 c 0.74558,0 1.34375,0.62941 1.34375,1.375 0,0.74559 -0.59817,1.34375 -1.34375,1.34375 -0.74558,0 -1.34375,-0.59816 -1.34375,-1.34375 0,-0.74559 0.59817,-1.375 1.34375,-1.375 z"/>
   <path  style="fill:url(#linearGradient4309);fill-opacity:1;stroke:#000000;stroke-width:0.18000001;stroke-linecap:round;stroke-linejoin:round;stroke-miterlimit:4;stroke-opacity:1;stroke-dasharray:none;display:inline" id="path4055" d="m 29.25,441.90625 c -2.867527,0 -5.198216,3.35957 -5.375,7.59375 1.739261,0.32243 3.542354,0.5 5.375,0.5 1.832646,0 3.635739,-0.17757 5.375,-0.5 -0.176784,-4.23418 -2.507473,-7.59375 -5.375,-7.59375 z m 0,2.6875 c 0.745584,0 1.34375,0.59816 1.34375,1.34375 0,0.74559 -0.598166,1.375 -1.34375,1.375 -0.745584,0 -1.34375,-0.62941 -1.34375,-1.375 0,-0.74559 0.598166,-1.34375 1.34375,-1.34375 z"/>
   <path  style="fill:url(#linearGradient4307);fill-opacity:1;stroke:#000000;stroke-width:0.18000001;stroke-linecap:round;stroke-linejoin:round;stroke-miterlimit:4;stroke-opacity:1;stroke-dasharray:none;display:inline" id="path4090" d="m 47.571847,431.32812 c -1.433764,2.48335 0.310365,6.18157 3.88888,8.45176 1.148863,-1.34503 2.20419,-2.81776 3.120513,-4.40488 0.916323,-1.58712 1.664089,-3.23743 2.254487,-4.90489 -3.755299,-1.96399 -7.830117,-1.62534 -9.26388,0.85801 z m 2.327443,1.34375 c 0.372792,-0.64569 1.189897,-0.86464 1.835597,-0.49184 0.6457,0.37279 0.891702,1.20552 0.51891,1.85122 -0.372792,0.64569 -1.21696,0.84901 -1.86266,0.47622 -0.6457,-0.3728 -0.864639,-1.1899 -0.491847,-1.8356 z"/>
   <path  style="fill:url(#linearGradient4305);fill-opacity:1;stroke:#000000;stroke-width:0.18000001;stroke-linecap:round;stroke-linejoin:round;stroke-miterlimit:4;stroke-opacity:1;stroke-dasharray:none;display:inline" id="path4104" d="m 47.571847,410.17187 c 1.433763,2.48335 5.508581,2.822 9.26388,0.85801 -0.590398,-1.66746 -1.338164,-3.31776 -2.254487,-4.90488 -0.916323,-1.58712 -1.97165,-3.05986 -3.120513,-4.40489 -3.578515,2.27019 -5.322644,5.96841 -3.88888,8.45176 z m 2.327443,-1.34375 c -0.372792,-0.64569 -0.153853,-1.4628 0.491847,-1.83559 0.6457,-0.3728 1.489868,-0.16948 1.86266,0.47622 0.372792,0.64569 0.12679,1.47842 -0.51891,1.85122 -0.6457,0.37279 -1.462805,0.15385 -1.835597,-0.49185 z"/>
   <path  style="fill:url(#linearGradient4303);fill-opacity:1;stroke:#000000;stroke-width:0.18000001;stroke-linecap:round;stroke-linejoin:round;stroke-miterlimit:4;stroke-opacity:1;stroke-dasharray:none;display:inline" id="path4106" d="m 3.9187541,435.375 c 0.916323,1.58712 1.9716496,3.05985 3.1205127,4.40488 3.5893302,-2.26927 5.3247702,-5.96472 3.8888802,-8.45176 -1.4358893,-2.48703 -5.503963,-2.83182 -9.2638802,-0.85801 0.5903979,1.66746 1.3381643,3.31777 2.2544873,4.90489 z m 2.3274433,-1.34375 c -0.37279,-0.64569 -0.12679,-1.47843 0.5189099,-1.85122 0.6456999,-0.3728 1.4628066,-0.15385 1.8355966,0.49184 0.37279,0.64569 0.1538533,1.4628 -0.4918466,1.8356 -0.6456999,0.37279 -1.4898699,0.16947 -1.8626599,-0.47622 z"/>
   <g  id="g4191" transform="matrix(1,0,0,1.0303026,1.3500008,-12.51801)">
    <rect  width="2.7" x="22.049999" y="415.79999" height="1.35" style="fill:url(#linearGradient4199);fill-opacity:1;stroke:none" id="rect4155"/>
    <rect  width="2.7" x="22.049999" y="413.10001" height="1.3499939" style="fill:url(#linearGradient4201);fill-opacity:1;stroke:none" id="rect4157"/>
    <rect  width="2.7" x="22.049999" y="418.5" height="1.35" style="fill:url(#linearGradient4203);fill-opacity:1;stroke:none" id="rect4159"/>
    <rect  width="2.7" x="22.049999" y="421.20001" height="1.35" style="fill:url(#linearGradient4205);fill-opacity:1;stroke:none" id="rect4161"/>
    <rect  width="2.7" x="22.049999" y="423.89999" height="1.35" style="fill:url(#linearGradient4207);fill-opacity:1;stroke:none" id="rect4163"/>
    <rect  width="2.7" x="22.049999" y="426.60001" height="1.35" style="fill:url(#linearGradient4209);fill-opacity:1;stroke:none" id="rect4165"/>
   </g>
   <g  id="g4211" transform="matrix(-1,0,0,-1.0303026,57.149999,854.018)">
    <rect  width="2.7" x="22.049999" y="415.79999" height="1.35" style="fill:url(#linearGradient4225);fill-opacity:1;stroke:none" id="rect4213"/>
    <rect  width="2.7" x="22.049999" y="413.10001" height="1.3499939" style="fill:url(#linearGradient4227);fill-opacity:1;stroke:none" id="rect4215"/>
    <rect  width="2.7" x="22.049999" y="418.5" height="1.35" style="fill:url(#linearGradient4229);fill-opacity:1;stroke:none" id="rect4217"/>
    <rect  width="2.7" x="22.049999" y="421.20001" height="1.35" style="fill:url(#linearGradient4231);fill-opacity:1;stroke:none" id="rect4219"/>
    <rect  width="2.7" x="22.049999" y="423.89999" height="1.35" style="fill:url(#linearGradient4233);fill-opacity:1;stroke:none" id="rect4221"/>
    <rect  width="2.7" x="22.049999" y="426.60001" height="1.35" style="fill:url(#linearGradient4235);fill-opacity:1;stroke:none" id="rect4223"/>
   </g>
   <rect  width="9" x="24.75" y="411.75" height="18" style="fill:#292929;fill-opacity:1;stroke:#000000;stroke-width:0.09;stroke-linecap:round;stroke-linejoin:round;stroke-miterlimit:4;stroke-opacity:1;stroke-dasharray:none" id="rect4153"/>
   <path  style="fill:none;stroke:none;display:inline" id="connector2pin" d="m 31.95,445.95001 a 2.7,2.7 0 1 1 -5.4,0 2.7,2.7 0 1 1 5.4,0 z" transform="matrix(-0.5,-0.8660254,0.8660254,-0.5,-320.50519,656.45624)"/>
   <path  style="fill:none;stroke:none;display:inline" id="connector1pin" d="m 31.95,445.95001 a 2.7,2.7 0 1 1 -5.4,0 2.7,2.7 0 1 1 5.4,0 z" transform="translate(0,-50.400012)"/>
   <path  style="fill:none;stroke:none;display:inline" id="connector3pin" d="m 31.95,445.95001 a 2.7,2.7 0 1 1 -5.4,0 2.7,2.7 0 1 1 5.4,0 z" transform="matrix(0.5,-0.8660254,0.8660254,0.5,-349.75519,235.70624)"/>
   <path  style="fill:none;stroke:none;display:inline" id="connector4pin" d="m 31.95,445.95001 a 2.7,2.7 0 1 1 -5.4,0 2.7,2.7 0 1 1 5.4,0 z" transform="translate(4.7683715e-8,-1.2207031e-5)"/>
   <path  style="fill:none;stroke:none;display:inline" id="connector5pin" d="m 31.95,445.95001 a 2.7,2.7 0 1 1 -5.4,0 2.7,2.7 0 1 1 5.4,0 z" transform="matrix(-0.5,-0.8660254,0.8660254,-0.5,-364.15288,681.65625)"/>
   <path  style="fill:none;stroke:none;display:inline" id="connector6pin" d="m 31.95,445.95001 a 2.7,2.7 0 1 1 -5.4,0 2.7,2.7 0 1 1 5.4,0 z" transform="matrix(0.5,-0.8660254,0.8660254,0.5,-393.40288,210.50623)"/>
   <rect  width="13.5" x="22.5" y="403.20001" height="6.3000002" style="fill:#fffcfc;fill-opacity:0.15686275;stroke:none" id="rect4237"/>
   <rect  width="13.5" x="22.5" y="432" height="6.3000002" style="fill:#fffcfc;fill-opacity:0.15686275;stroke:none" id="rect4239"/>
   <rect  width="12.600012" x="407.69998" y="-44.099998" height="6.3000002" style="fill:#fffcfc;fill-opacity:0.15686275;stroke:none" id="rect4241" transform="matrix(0,1,-1,0,0,0)"/>
   <rect  width="12.600012" x="421.20001" y="-44.099998" height="6.3000002" style="fill:#fffcfc;fill-opacity:0.15686275;stroke:none" id="rect4243" transform="matrix(0,1,-1,0,0,0)"/>
   <rect  width="12.600012" x="421.20001" y="-20.700001" height="6.3000002" style="fill:#fffcfc;fill-opacity:0.15686275;stroke:none" id="rect4245" transform="matrix(0,1,-1,0,0,0)"/>
   <rect  width="12.600012" x="407.69998" y="-20.700001" height="6.3000002" style="fill:#fffcfc;fill-opacity:0.15686275;stroke:none" id="rect4247" transform="matrix(0,1,-1,0,0,0)"/>
   <path  style="fill:none;stroke:#ffffff;stroke-width:0.89999998;stroke-miterlimit:4;stroke-opacity:1;stroke-dasharray:none" id="path4326" d="m 11.7,423 a 2.7,2.7 0 1 1 -5.4,0 2.7,2.7 0 1 1 5.4,0 z"/>
   <path  style="color:#000000;fill:#ffffff;stroke:#ffffff;stroke-width:0.89999998;stroke-linecap:round;stroke-linejoin:miter;stroke-miterlimit:4;stroke-opacity:1;stroke-dasharray:none;stroke-dashoffset:0;marker:none;visibility:visible;display:inline;overflow:visible;enable-background:accumulate" id="path4328" d="m 9,420.3 0,-2.7"/>
   <path  style="color:#000000;fill:none;stroke:#ffffff;stroke-width:0.89999998;stroke-linecap:round;stroke-linejoin:round;stroke-miterlimit:4;stroke-opacity:1;stroke-dasharray:none;stroke-dashoffset:0;marker:none;visibility:visible;display:inline;overflow:visible;enable-background:accumulate" id="path4334" d="m 8.1,418.5 0.9,-0.9 0.9,0.9"/>
   <path  style="color:#000000;fill:none;stroke:#ffffff;stroke-width:0.89999998;stroke-linecap:round;stroke-linejoin:miter;stroke-miterlimit:4;stroke-opacity:1;stroke-dasharray:none;stroke-dashoffset:0;marker:none;visibility:visible;display:inline;overflow:visible;enable-background:accumulate" id="path4336" d="m 6.3,423 -2.7,0"/>
   <path  style="color:#000000;fill:none;stroke:#ffffff;stroke-width:0.89999998;stroke-linecap:round;stroke-linejoin:round;stroke-miterlimit:4;stroke-opacity:1;stroke-dasharray:none;stroke-dashoffset:0;marker:none;visibility:visible;display:inline;overflow:visible;enable-background:accumulate" id="path4338" d="m 4.5,422.1 -0.9,0.9 0.9,0.9"/>
   <path  style="color:#000000;fill:none;stroke:#ffffff;stroke-width:0.44999999;stroke-linecap:round;stroke-linejoin:round;stroke-miterlimit:4;stroke-opacity:1;stroke-dasharray:none;stroke-dashoffset:0;marker:none;visibility:visible;display:inline;overflow:visible;enable-background:accumulate" id="path4340" d="m 9.9,423.9 -1.8,0 1.8,-1.8 -1.8,0"/>
   <g  style="stroke:#ffffff;stroke-width:0.44999999;stroke-miterlimit:4;stroke-opacity:1;stroke-dasharray:none" id="g4346">
    <path  style="color:#000000;fill:none;stroke:#ffffff;stroke-width:0.44999999;stroke-linecap:round;stroke-linejoin:miter;stroke-miterlimit:4;stroke-opacity:1;stroke-dasharray:none;stroke-dashoffset:0;marker:none;visibility:visible;display:inline;overflow:visible;enable-background:accumulate" id="path4342" d="m 2.25,422.1 0,-0.9 0.9,-0.9"/>
    <path  style="color:#000000;fill:none;stroke:#ffffff;stroke-width:0.44999999;stroke-linecap:round;stroke-linejoin:miter;stroke-miterlimit:4;stroke-opacity:1;stroke-dasharray:none;stroke-dashoffset:0;marker:none;visibility:visible;display:inline;overflow:visible;enable-background:accumulate" id="path4344" d="m 2.25,421.2 -0.9,-0.9"/>
   </g>
   <path  style="color:#000000;fill:none;stroke:#ffffff;stroke-width:0.44999999;stroke-linecap:round;stroke-linejoin:miter;stroke-miterlimit:4;stroke-opacity:1;stroke-dasharray:none;stroke-dashoffset:0;marker:none;visibility:visible;display:inline;overflow:visible;enable-background:accumulate" id="path4350" d="m 8.1,416.25 1.8,-1.8"/>
   <path  style="color:#000000;fill:none;stroke:#ffffff;stroke-width:0.44999999;stroke-linecap:round;stroke-linejoin:miter;stroke-miterlimit:4;stroke-opacity:1;stroke-dasharray:none;stroke-dashoffset:0;marker:none;visibility:visible;display:inline;overflow:visible;enable-background:accumulate" id="path4352" d="m 8.1,414.45 1.8,1.8"/>
   <g style="font-size:4px;font-style:normal;font-variant:normal;font-weight:bold;font-stretch:normal;line-height:125%;letter-spacing:0px;word-spacing:0px;fill:#ffffff;fill-opacity:1;stroke:none;font-family:OCR A Std;-inkscape-font-specification:OCR A Std Bold" id="text4354" xml:space="preserve" transform="matrix(0.5,0.8660254,-0.8660254,0.5,0,0)">
    <text x="351.11816" y="192.84549" id="tspan4356">SCL</text>
   </g>
   <g style="font-size:4px;font-style:normal;font-variant:normal;font-weight:normal;font-stretch:normal;line-height:125%;letter-spacing:0px;word-spacing:0px;fill:#ffffff;fill-opacity:1;stroke:none;font-family:OCR A Std;-inkscape-font-specification:OCR A Std" id="text4358" xml:space="preserve" transform="matrix(0.5,0.8660254,-0.8660254,0.5,0,0)">
    <text x="350.89749" y="179.72769" id="tspan4360">gnd</text>
   </g>
   <g style="font-size:4px;font-style:normal;font-variant:normal;font-weight:normal;font-stretch:normal;line-height:125%;letter-spacing:0px;word-spacing:0px;fill:#ffffff;fill-opacity:1;stroke:none;font-family:OCR A Std;-inkscape-font-specification:OCR A Std" id="text4362" xml:space="preserve" transform="matrix(0.8660254,0.5,-0.5,0.8660254,0,0)">
    <text x="227.45451" y="376.86279" id="tspan4364">SDA</text>
   </g>
   <g style="font-size:4px;font-style:normal;font-variant:normal;font-weight:normal;font-stretch:normal;line-height:125%;letter-spacing:0px;word-spacing:0px;fill:#ffffff;fill-opacity:1;stroke:none;font-family:OCR A Std;-inkscape-font-specification:OCR A Std" id="text4366" xml:space="preserve" transform="matrix(0.5,0.8660254,-0.8660254,0.5,0,0)">
    <text x="400.12604" y="192.56136" id="tspan4368">3V</text>
   </g>
   <g style="font-size:4px;font-style:normal;font-variant:normal;font-weight:bold;font-stretch:normal;line-height:125%;letter-spacing:0px;word-spacing:0px;fill:#ffffff;fill-opacity:1;stroke:none;font-family:OCR A Std;-inkscape-font-specification:OCR A Std Bold" id="text4370" xml:space="preserve">
    <text x="47.700001" y="415.79999" id="tspan4372">SCL</text>
   </g>
   <g style="font-size:4px;font-style:normal;font-variant:normal;font-weight:normal;font-stretch:normal;line-height:125%;letter-spacing:0px;word-spacing:0px;fill:#ffffff;fill-opacity:1;stroke:none;font-family:OCR A Std;-inkscape-font-specification:OCR A Std" id="text4378" xml:space="preserve">
    <text x="47.700001" y="428.85001" id="tspan4380">SDA</text>
   </g>
   <path  style="fill:#ffffff;fill-opacity:1;stroke:none;overflow:visible" id="path12631" d="m 46.227123,400.8331 c -0.03064,-0.19212 -0.1347,-0.2467 -0.385653,-0.32724 -0.190809,-0.061 -1.468782,-0.46822 -1.468782,-0.46822 0,0 -0.890283,-0.3362 -1.550586,0.13958 -0.089,0.0639 -0.180807,0.13693 -0.273522,0.21494 0.0779,-0.0927 0.150628,-0.18487 0.214627,-0.27389 0.474435,-0.66102 0.136577,-1.55095 0.136577,-1.55095 0,0 -0.409336,-1.2771 -0.470857,-1.46783 -0.08104,-0.25095 -0.1358,-0.35478 -0.327753,-0.38492 -0.191909,-0.0303 -0.276103,0.0517 -0.430088,0.26568 -0.11716,0.16253 -0.899273,1.252 -0.899273,1.252 0,0 -0.594867,0.74305 -0.346467,1.51797 0.03338,0.1044 0.07437,0.21437 0.120036,0.32662 -0.06425,-0.10283 -0.129362,-0.20046 -0.194241,-0.2888 -0.482223,-0.65536 -1.432795,-0.60924 -1.432795,-0.60924 0,0 -1.341078,-0.005 -1.541596,-0.006 -0.263549,-5.8e-4 -0.379257,0.0196 -0.467366,0.19264 -0.08812,0.17326 -0.03592,0.27864 0.119801,0.49122 0.118348,0.1617 0.912852,1.24223 0.912852,1.24223 0,0 0.522977,0.79533 1.336503,0.79869 0.109314,4.6e-4 0.226489,-0.004 0.346979,-0.0131 -0.117293,0.0292 -0.230083,0.0609 -0.333752,0.0953 -0.772418,0.25611 -1.022226,1.17446 -1.022226,1.17446 0,0 -0.41944,1.27383 -0.481914,1.4643 -0.08192,0.25049 -0.09865,0.3668 0.03879,0.50406 0.137617,0.13728 0.253825,0.12043 0.50419,0.038 0.190473,-0.0625 1.463489,-0.48432 1.463489,-0.48432 0,0 0.918015,-0.25164 1.172574,-1.02451 0.0342,-0.10372 0.06567,-0.21617 0.09468,-0.33336 -0.0083,0.12031 -0.01302,0.23715 -0.01241,0.3465 C 41.05374,404.47852 41.85,405 41.85,405 c 0,0 1.08187,0.79239 1.243627,0.91071 0.213013,0.15522 0.318412,0.20709 0.491506,0.11876 0.173182,-0.0883 0.192921,-0.20417 0.191822,-0.46782 -6.98e-4,-0.20034 -0.0084,-1.54149 -0.0084,-1.54149 0,0 0.04455,-0.95068 -0.611819,-1.43163 -0.08824,-0.0645 -0.185646,-0.12952 -0.288362,-0.19339 0.11213,0.0454 0.2219,0.086 0.326067,0.11897 0.775337,0.24706 1.517252,-0.34908 1.517252,-0.34908 0,0 1.088278,-0.78397 1.250564,-0.90156 0.213466,-0.15447 0.295416,-0.23879 0.264883,-0.43051 z m -4.618907,-0.98744 c 0.146257,0.023 0.218879,0.3341 0.161963,0.69481 -0.05667,0.36069 -0.221328,0.63439 -0.367687,0.61139 -0.146344,-0.0231 -0.218923,-0.33415 -0.162065,-0.69484 0.05678,-0.36078 0.221371,-0.63459 0.367789,-0.61136 z m -1.873367,0.95652 c 0.06718,-0.13206 0.385373,-0.1049 0.710912,0.0607 0.325509,0.16544 0.534988,0.40666 0.467938,0.53851 -0.06723,0.13214 -0.385417,0.10496 -0.71103,-0.0604 -0.325524,-0.16556 -0.534958,-0.40676 -0.46782,-0.53881 z m 0.987864,1.79892 c -0.25799,0.25837 -0.55216,0.38307 -0.65706,0.27834 -0.104725,-0.10449 0.01955,-0.39889 0.277525,-0.65737 0.257903,-0.2585 0.552043,-0.3832 0.65687,-0.27846 0.104725,0.10461 -0.0194,0.399 -0.277335,0.65749 z m 1.420902,0.60566 c -0.131987,0.0673 -0.373436,-0.14167 -0.539417,-0.46692 -0.166172,-0.32515 -0.193903,-0.6436 -0.06202,-0.71094 0.131811,-0.0672 0.373362,0.14187 0.539476,0.46691 0.166113,0.32516 0.193844,0.64349 0.06196,0.71095 z m 0.342566,-1.50627 c -0.360634,0.0575 -0.671859,-0.0146 -0.695221,-0.16073 -0.02311,-0.14635 0.250277,-0.31151 0.610793,-0.3688 0.36075,-0.0576 0.671858,0.0144 0.695088,0.16077 0.02336,0.14607 -0.250043,0.31132 -0.61066,0.36876 z"/>
  </g>
 </g>
 <g  style="display:inline" id="layer5" transform="translate(0,-391.5)"/>
</svg>
